<?xml version="1.0" encoding="utf-8"?>
<svg xmlns="http://www.w3.org/2000/svg" xmlns:xlink="http://www.w3.org/1999/xlink" style="margin: auto; background: rgb(241, 242, 243); display: block; z-index: 1; position: relative; shape-rendering: auto;" width="1920" height="1080" preserveAspectRatio="xMidYMid" viewBox="0 0 1920 1080">
<g transform=""><path id="path0" d="M 1216.5968076384793 271.8809586359391
c 0 33.91410887645087 -8.29813302296138 9.741286592172058 -18.03941961513344 9.741286592172058
S 1180.5179684082123 305.79506751239 1180.5179684082123 271.8809586359391
s 8.29813302296138 -9.741286592172058 18.03941961513344 -9.741286592172058
S 1216.5968076384793 237.96684975948824 1216.5968076384793 271.8809586359391
z" fill="none" stroke="none"></path>
<circle cx="0" cy="0" r="6.152959187531937" fill="#9e3ea7">
  <animateMotion begin="-18.944905826763808s" dur="20s" repeatCount="indefinite">
    <mpath xlink:href="#path0"></mpath>
  </animateMotion>
</circle><path id="path1" d="M 728.088610547166 334.43802877400435
c 0 31.791311726779963 -7.7787252097440325 9.131546985351692 -16.91027219509572 9.131546985351692
S 694.2680661569747 366.2293405007843 694.2680661569747 334.43802877400435
s 7.7787252097440325 -9.131546985351692 16.91027219509572 -9.131546985351692
S 728.088610547166 302.6467170472244 728.088610547166 334.43802877400435
z" fill="none" stroke="none"></path>
<circle cx="0" cy="0" r="4.326910076377969" fill="#e4d8eb">
  <animateMotion begin="-15.777263285125471s" dur="20s" repeatCount="indefinite">
    <mpath xlink:href="#path1"></mpath>
  </animateMotion>
</circle><path id="path2" d="M 767.1347739077145 136.95839106019412
c 0 29.31203380191349 -7.172093377063938 8.419413964379407 -15.591507341443345 8.419413964379407
S 735.9517592248277 166.2704248621076 735.9517592248277 136.95839106019412
s 7.172093377063938 -8.419413964379407 15.591507341443345 -8.419413964379407
S 767.1347739077145 107.64635725828063 767.1347739077145 136.95839106019412
z" fill="none" stroke="none"></path>
<circle cx="0" cy="0" r="6.417510102405244" fill="#9e3ea7">
  <animateMotion begin="-2.2030220124912914s" dur="20s" repeatCount="indefinite">
    <mpath xlink:href="#path2"></mpath>
  </animateMotion>
</circle><path id="path3" d="M 378.8491121022892 648.3867549725536
c 0 26.18118221086818 -6.406033945212426 7.5201268052493715 -13.926160750461797 7.5201268052493715
S 350.9967906013656 674.5679371834218 350.9967906013656 648.3867549725536
s 6.406033945212426 -7.5201268052493715 13.926160750461797 -7.5201268052493715
S 378.8491121022892 622.2055727616854 378.8491121022892 648.3867549725536
z" fill="none" stroke="none"></path>
<circle cx="0" cy="0" r="5.072532197004765" fill="#e4d8eb">
  <animateMotion begin="-2.4098174930039606s" dur="20s" repeatCount="indefinite">
    <mpath xlink:href="#path3"></mpath>
  </animateMotion>
</circle><path id="path4" d="M 1297.024156051829 1027.4522312004433
c 0 26.576343273071316 -6.502722290219577 7.633630514605591 -14.136352804825167 7.633630514605591
S 1268.7514504421786 1054.0285744735147 1268.7514504421786 1027.4522312004433
s 6.502722290219577 -7.633630514605591 14.136352804825167 -7.633630514605591
S 1297.024156051829 1000.875887927372 1297.024156051829 1027.4522312004433
z" fill="none" stroke="none"></path>
<circle cx="0" cy="0" r="7.105043175599377" fill="#9e3ea7">
  <animateMotion begin="-19.96388481026742s" dur="20s" repeatCount="indefinite">
    <mpath xlink:href="#path4"></mpath>
  </animateMotion>
</circle><path id="path5" d="M 1466.0405526770617 1073.5751539656312
c 0 27.044418294815166 -6.617251284901583 7.768077595319251 -14.385328880220833 7.768077595319251
S 1437.26989491662 1100.6195722604464 1437.26989491662 1073.5751539656312
s 6.617251284901583 -7.768077595319251 14.385328880220833 -7.768077595319251
S 1466.0405526770617 1046.530735670816 1466.0405526770617 1073.5751539656312
z" fill="none" stroke="none"></path>
<circle cx="0" cy="0" r="5.169789098714473" fill="#e4d8eb">
  <animateMotion begin="-0.2552300423807097s" dur="20s" repeatCount="indefinite">
    <mpath xlink:href="#path5"></mpath>
  </animateMotion>
</circle><path id="path6" d="M 784.6380446864785 369.0998892199788
c 0 36.3578378229057 -8.896066701349266 10.44320873636653 -19.3392754377158 10.44320873636653
S 745.959493811047 405.4577270428845 745.959493811047 369.0998892199788
s 8.896066701349266 -10.44320873636653 19.3392754377158 -10.44320873636653
S 784.6380446864785 332.7420513970731 784.6380446864785 369.0998892199788
z" fill="none" stroke="none"></path>
<circle cx="0" cy="0" r="4.236059878929419" fill="#75017a">
  <animateMotion begin="-2.341654740668755s" dur="20s" repeatCount="indefinite">
    <mpath xlink:href="#path6"></mpath>
  </animateMotion>
</circle><path id="path7" d="M 1480.8753210185484 618.3258001815025
c 0 19.785264120564054 -4.841075263542268 5.683001396332229 -10.524076659874497 5.683001396332229
S 1459.8271676987995 638.1110643020666 1459.8271676987995 618.3258001815025
s 4.841075263542268 -5.683001396332229 10.524076659874497 -5.683001396332229
S 1480.8753210185484 598.5405360609384 1480.8753210185484 618.3258001815025
z" fill="none" stroke="none"></path>
<circle cx="0" cy="0" r="7.438201340560859" fill="#75017a">
  <animateMotion begin="-13.869642986080093s" dur="20s" repeatCount="indefinite">
    <mpath xlink:href="#path7"></mpath>
  </animateMotion>
</circle><path id="path8" d="M 393.35922459905504 1019.9009002473741
c 0 31.607570866706972 -7.733767339726173 9.078770355330727 -16.8125376950569 9.078770355330727
S 359.73414920894123 1051.5084711140812 359.73414920894123 1019.9009002473741
s 7.733767339726173 -9.078770355330727 16.8125376950569 -9.078770355330727
S 393.35922459905504 988.2933293806672 393.35922459905504 1019.9009002473741
z" fill="none" stroke="none"></path>
<circle cx="0" cy="0" r="7.562913909921781" fill="#9e3ea7">
  <animateMotion begin="-14.602643178133166s" dur="20s" repeatCount="indefinite">
    <mpath xlink:href="#path8"></mpath>
  </animateMotion>
</circle><path id="path9" d="M 324.83186073833 1052.643939215452
c 0 31.244553187356395 -7.644943864991458 8.974499319772582 -16.61944318476404 8.974499319772582
S 291.5929743688019 1083.8884924028084 291.5929743688019 1052.643939215452
s 7.644943864991458 -8.974499319772582 16.61944318476404 -8.974499319772582
S 324.83186073833 1021.3993860280957 324.83186073833 1052.643939215452
z" fill="none" stroke="none"></path>
<circle cx="0" cy="0" r="4.00635071220427" fill="#9e3ea7">
  <animateMotion begin="-0.8415099240133772s" dur="20s" repeatCount="indefinite">
    <mpath xlink:href="#path9"></mpath>
  </animateMotion>
</circle><path id="path10" d="M 398.0289774248885 1045.8388998206583
c 0 18.845585767458726 -4.6111539643781985 5.4130937842700595 -10.024247748648259 5.4130937842700595
S 377.98048192759205 1064.684485588117 377.98048192759205 1045.8388998206583
s 4.6111539643781985 -5.4130937842700595 10.024247748648259 -5.4130937842700595
S 398.0289774248885 1026.9933140531996 398.0289774248885 1045.8388998206583
z" fill="none" stroke="none"></path>
<circle cx="0" cy="0" r="5.906721634921898" fill="#e4d8eb">
  <animateMotion begin="-7.036127005344284s" dur="20s" repeatCount="indefinite">
    <mpath xlink:href="#path10"></mpath>
  </animateMotion>
</circle><path id="path11" d="M 1588.7850463772647 869.6919946552299
c 0 30.48425763821407 -7.458914102967272 8.756116555657233 -16.215030658624507 8.756116555657233
S 1556.3549850600157 900.176252293444 1556.3549850600157 869.6919946552299
s 7.458914102967272 -8.756116555657233 16.215030658624507 -8.756116555657233
S 1588.7850463772647 839.2077370170158 1588.7850463772647 869.6919946552299
z" fill="none" stroke="none"></path>
<circle cx="0" cy="0" r="6.47924457673371" fill="#75017a">
  <animateMotion begin="-19.212045453314616s" dur="20s" repeatCount="indefinite">
    <mpath xlink:href="#path11"></mpath>
  </animateMotion>
</circle><path id="path12" d="M 157.2934124526097 662.7350695951242
c 0 22.869918117257317 -5.59583102869062 6.569019033680293 -12.164850062370913 6.569019033680293
S 132.96371232786788 685.6049877123814 132.96371232786788 662.7350695951242
s 5.59583102869062 -6.569019033680293 12.164850062370913 -6.569019033680293
S 157.2934124526097 639.8651514778669 157.2934124526097 662.7350695951242
z" fill="none" stroke="none"></path>
<circle cx="0" cy="0" r="6.687816051650042" fill="#caacd4">
  <animateMotion begin="-13.54991229788106s" dur="20s" repeatCount="indefinite">
    <mpath xlink:href="#path12"></mpath>
  </animateMotion>
</circle><path id="path13" d="M 1610.5185342654406 729.2098490765698
c 0 35.0444659300964 -8.574709748853374 10.065963618219179 -18.64067336707255 10.065963618219179
S 1573.2371875312954 764.2543150066662 1573.2371875312954 729.2098490765698
s 8.574709748853374 -10.065963618219179 18.64067336707255 -10.065963618219179
S 1610.5185342654406 694.1653831464733 1610.5185342654406 729.2098490765698
z" fill="none" stroke="none"></path>
<circle cx="0" cy="0" r="6.376216380955648" fill="#75017a">
  <animateMotion begin="-2.4470267340304064s" dur="20s" repeatCount="indefinite">
    <mpath xlink:href="#path13"></mpath>
  </animateMotion>
</circle><path id="path14" d="M 1429.343718737473 474.97281101080466
c 0 27.649133474274684 -6.765213509662954 7.941772380908686 -14.70698589057164 7.941772380908686
S 1399.9297469563298 502.6219444850793 1399.9297469563298 474.97281101080466
s 6.765213509662954 -7.941772380908686 14.70698589057164 -7.941772380908686
S 1429.343718737473 447.32367753653 1429.343718737473 474.97281101080466
z" fill="none" stroke="none"></path>
<circle cx="0" cy="0" r="6.485197864523571" fill="#b06cc5">
  <animateMotion begin="-18.034480025193833s" dur="20s" repeatCount="indefinite">
    <mpath xlink:href="#path14"></mpath>
  </animateMotion>
</circle><path id="path15" d="M 775.4412270586719 169.96994148327894
c 0 30.84635731550846 -7.547512960177601 8.860123909773707 -16.407636869951308 8.860123909773707
S 742.6259533187693 200.81629879878741 742.6259533187693 169.96994148327894
s 7.547512960177601 -8.860123909773707 16.407636869951308 -8.860123909773707
S 775.4412270586719 139.12358416777047 775.4412270586719 169.96994148327894
z" fill="none" stroke="none"></path>
<circle cx="0" cy="0" r="6.467435126408593" fill="#e4d8eb">
  <animateMotion begin="-17.98864517815987s" dur="20s" repeatCount="indefinite">
    <mpath xlink:href="#path15"></mpath>
  </animateMotion>
</circle><path id="path16" d="M 1362.5530694734834 798.6109812912767
c 0 32.74083066545309 -8.011054311759798 9.40428114858759 -17.415335460347386 9.40428114858759
S 1327.7223985527885 831.3518119567299 1327.7223985527885 798.6109812912767
s 8.011054311759798 -9.40428114858759 17.415335460347386 -9.40428114858759
S 1362.5530694734834 765.8701506258236 1362.5530694734834 798.6109812912767
z" fill="none" stroke="none"></path>
<circle cx="0" cy="0" r="4.8417709908926945" fill="#caacd4">
  <animateMotion begin="-15.187041276464956s" dur="20s" repeatCount="indefinite">
    <mpath xlink:href="#path16"></mpath>
  </animateMotion>
</circle><path id="path17" d="M 1413.548884147982 209.17499306739592
c 0 32.54961414401007 -7.9642672905556555 9.349357254130553 -17.313624544686206 9.349357254130553
S 1378.9216350586096 241.72460721140598 1378.9216350586096 209.17499306739592
s 7.9642672905556555 -9.349357254130553 17.313624544686206 -9.349357254130553
S 1413.548884147982 176.62537892338585 1413.548884147982 209.17499306739592
z" fill="none" stroke="none"></path>
<circle cx="0" cy="0" r="7.057710285013204" fill="#9e3ea7">
  <animateMotion begin="-17.99177509123023s" dur="20s" repeatCount="indefinite">
    <mpath xlink:href="#path17"></mpath>
  </animateMotion>
</circle><path id="path18" d="M 961.0239512062265 710.6755843857188
c 0 21.623274847672118 -5.290801292515518 6.210940647735609 -11.501741940251126 6.210940647735609
S 938.0204673257242 732.2988592333909 938.0204673257242 710.6755843857188
s 5.290801292515518 -6.210940647735609 11.501741940251126 -6.210940647735609
S 961.0239512062265 689.0523095380468 961.0239512062265 710.6755843857188
z" fill="none" stroke="none"></path>
<circle cx="0" cy="0" r="7.751089561505074" fill="#e4d8eb">
  <animateMotion begin="-6.13302135010982s" dur="20s" repeatCount="indefinite">
    <mpath xlink:href="#path18"></mpath>
  </animateMotion>
</circle><path id="path19" d="M 1263.1374809400165 939.1182274237674
c 0 37.46438628814437 -9.166817921567239 10.761047125318065 -19.9278650468853 10.761047125318065
S 1223.281750846246 976.5826137119118 1223.281750846246 939.1182274237674
s 9.166817921567239 -10.761047125318065 19.9278650468853 -10.761047125318065
S 1263.1374809400165 901.653841135623 1263.1374809400165 939.1182274237674
z" fill="none" stroke="none"></path>
<circle cx="0" cy="0" r="6.129612305771224" fill="#9e3ea7">
  <animateMotion begin="-12.468735931091262s" dur="20s" repeatCount="indefinite">
    <mpath xlink:href="#path19"></mpath>
  </animateMotion>
</circle><path id="path20" d="M 913.1646747935172 812.3603136015173
c 0 26.134695090320097 -6.394659436993215 7.5067741216876875 -13.901433558680903 7.5067741216876875
S 885.3618076761554 838.4950086918374 885.3618076761554 812.3603136015173
s 6.394659436993215 -7.5067741216876875 13.901433558680903 -7.5067741216876875
S 913.1646747935172 786.2256185111972 913.1646747935172 812.3603136015173
z" fill="none" stroke="none"></path>
<circle cx="0" cy="0" r="5.064125082026685" fill="#b06cc5">
  <animateMotion begin="-5.031964691318485s" dur="20s" repeatCount="indefinite">
    <mpath xlink:href="#path20"></mpath>
  </animateMotion>
</circle><path id="path21" d="M 1016.3752839391868 1040.4256139863585
c 0 26.039311648475476 -6.371320935265275 7.479376750094019 -13.850697685359295 7.479376750094019
S 988.6738885684683 1066.464925634834 988.6738885684683 1040.4256139863585
s 6.371320935265275 -7.479376750094019 13.850697685359295 -7.479376750094019
S 1016.3752839391868 1014.386302337883 1016.3752839391868 1040.4256139863585
z" fill="none" stroke="none"></path>
<circle cx="0" cy="0" r="7.024001682146824" fill="#9e3ea7">
  <animateMotion begin="-12.087554700000002s" dur="20s" repeatCount="indefinite">
    <mpath xlink:href="#path21"></mpath>
  </animateMotion>
</circle><path id="path22" d="M 1392.7246142856718 829.0987758902354
c 0 31.05904033712497 -7.599552422913556 8.921213713855044 -16.5207661367686 8.921213713855044
S 1359.6830820121347 860.1578162273604 1359.6830820121347 829.0987758902354
s 7.599552422913556 -8.921213713855044 16.5207661367686 -8.921213713855044
S 1392.7246142856718 798.0397355531104 1392.7246142856718 829.0987758902354
z" fill="none" stroke="none"></path>
<circle cx="0" cy="0" r="6.4149891574784155" fill="#caacd4">
  <animateMotion begin="-10.088872794555336s" dur="20s" repeatCount="indefinite">
    <mpath xlink:href="#path22"></mpath>
  </animateMotion>
</circle><path id="path23" d="M 1050.8586592427112 595.3069862982957
c 0 35.20315800858491 -8.613538661675028 10.1115453854446 -18.72508404711963 10.1115453854446
S 1013.4084911484719 630.5101443068805 1013.4084911484719 595.3069862982957
s 8.613538661675028 -10.1115453854446 18.72508404711963 -10.1115453854446
S 1050.8586592427112 560.1038282897108 1050.8586592427112 595.3069862982957
z" fill="none" stroke="none"></path>
<circle cx="0" cy="0" r="4.932620353170298" fill="#9e3ea7">
  <animateMotion begin="-14.864317726552837s" dur="20s" repeatCount="indefinite">
    <mpath xlink:href="#path23"></mpath>
  </animateMotion>
</circle><path id="path24" d="M 933.096049692126 603.4747665770991
c 0 34.85809939310894 -8.529109425973463 10.01243280440363 -18.541542230377093 10.01243280440363
S 896.0129652313718 638.332865970208 896.0129652313718 603.4747665770991
s 8.529109425973463 -10.01243280440363 18.541542230377093 -10.01243280440363
S 933.096049692126 568.6166671839902 933.096049692126 603.4747665770991
z" fill="none" stroke="none"></path>
<circle cx="0" cy="0" r="6.3133348553852775" fill="#b06cc5">
  <animateMotion begin="-7.294551539288636s" dur="20s" repeatCount="indefinite">
    <mpath xlink:href="#path24"></mpath>
  </animateMotion>
</circle><path id="path25" d="M 965.0768675254878 79.39129190865009
c 0 32.64008818624283 -7.98640455620835 9.375344479027195 -17.361749035235544 9.375344479027195
S 930.3533694550167 112.03138009489291 930.3533694550167 79.39129190865009
s 7.98640455620835 -9.375344479027195 17.361749035235544 -9.375344479027195
S 965.0768675254878 46.75120372240726 965.0768675254878 79.39129190865009
z" fill="none" stroke="none"></path>
<circle cx="0" cy="0" r="6.633970750696088" fill="#caacd4">
  <animateMotion begin="-4.656909301114731s" dur="20s" repeatCount="indefinite">
    <mpath xlink:href="#path25"></mpath>
  </animateMotion>
</circle><path id="path26" d="M 204.38908554182026 874.7363300744288
c 0 28.879986384201082 -7.066379647198136 8.295315238015204 -15.361694885213343 8.295315238015204
S 173.66569577139356 903.6163164586299 173.66569577139356 874.7363300744288
s 7.066379647198136 -8.295315238015204 15.361694885213343 -8.295315238015204
S 204.38908554182026 845.8563436902277 204.38908554182026 874.7363300744288
z" fill="none" stroke="none"></path>
<circle cx="0" cy="0" r="6.913282515941985" fill="#e4d8eb">
  <animateMotion begin="-3.9796590325603676s" dur="20s" repeatCount="indefinite">
    <mpath xlink:href="#path26"></mpath>
  </animateMotion>
</circle><path id="path27" d="M 1024.1168078211401 721.3145665344084
c 0 21.229338839329063 -5.1944126947294516 6.097788815551965 -11.292201510281416 6.097788815551965
S 1001.5324048005773 742.5439053737375 1001.5324048005773 721.3145665344084
s 5.1944126947294516 -6.097788815551965 11.292201510281416 -6.097788815551965
S 1024.1168078211401 700.0852276950793 1024.1168078211401 721.3145665344084
z" fill="none" stroke="none"></path>
<circle cx="0" cy="0" r="5.0236210121375615" fill="#75017a">
  <animateMotion begin="-15.461973935473097s" dur="20s" repeatCount="indefinite">
    <mpath xlink:href="#path27"></mpath>
  </animateMotion>
</circle><path id="path28" d="M 803.4632462245584 48.91463737914874
c 0 27.90407505087854 -6.82759283159794 8.015000280571495 -14.842593112169435 8.015000280571495
S 773.7780600002195 76.81871243002729 773.7780600002195 48.91463737914874
s 6.82759283159794 -8.015000280571495 14.842593112169435 -8.015000280571495
S 803.4632462245584 21.010562328270204 803.4632462245584 48.91463737914874
z" fill="none" stroke="none"></path>
<circle cx="0" cy="0" r="6.531548184796972" fill="#75017a">
  <animateMotion begin="-2.289141412776665s" dur="20s" repeatCount="indefinite">
    <mpath xlink:href="#path28"></mpath>
  </animateMotion>
</circle><path id="path29" d="M 1612.009578775855 423.6002818252592
c 0 36.145303527750826 -8.84406362913052 10.382161651588003 -19.226225280718523 10.382161651588003
S 1573.5571282144178 459.74558535301003 1573.5571282144178 423.6002818252592
s 8.84406362913052 -10.382161651588003 19.226225280718523 -10.382161651588003
S 1612.009578775855 387.4549782975083 1612.009578775855 423.6002818252592
z" fill="none" stroke="none"></path>
<circle cx="0" cy="0" r="6.73205815940941" fill="#9e3ea7">
  <animateMotion begin="-19.704752683205236s" dur="20s" repeatCount="indefinite">
    <mpath xlink:href="#path29"></mpath>
  </animateMotion>
</circle><path id="path30" d="M 102.5736094138861 588.7694282117916
c 0 29.14143518037696 -7.130351161156064 8.370412232661467 -15.500763393817532 8.370412232661467
S 71.57208262625103 617.9108633921685 71.57208262625103 588.7694282117916
s 7.130351161156064 -8.370412232661467 15.500763393817532 -8.370412232661467
S 102.5736094138861 559.6279930314147 102.5736094138861 588.7694282117916
z" fill="none" stroke="none"></path>
<circle cx="0" cy="0" r="6.9235720623748565" fill="#b06cc5">
  <animateMotion begin="-4.544300393789502s" dur="20s" repeatCount="indefinite">
    <mpath xlink:href="#path30"></mpath>
  </animateMotion>
</circle><path id="path31" d="M 1142.0359811191217 83.76428172012459
c 0 27.086893608581683 -6.627644180823176 7.780277951401121 -14.407922132224298 7.780277951401121
S 1113.2201368546732 110.85117532870626 1113.2201368546732 83.76428172012459
s 6.627644180823176 -7.780277951401121 14.407922132224298 -7.780277951401121
S 1142.0359811191217 56.6773881115429 1142.0359811191217 83.76428172012459
z" fill="none" stroke="none"></path>
<circle cx="0" cy="0" r="6.464763344130404" fill="#caacd4">
  <animateMotion begin="-2.8337445883830226s" dur="20s" repeatCount="indefinite">
    <mpath xlink:href="#path31"></mpath>
  </animateMotion>
</circle><path id="path32" d="M 1058.7449444786039 363.62447357182356
c 0 21.721264025248868 -5.314777367880041 6.239086475337441 -11.553863843217481 6.239086475337441
S 1035.637216792169 385.3457375970724 1035.637216792169 363.62447357182356
s 5.314777367880041 -6.239086475337441 11.553863843217481 -6.239086475337441
S 1058.7449444786039 341.9032095465747 1058.7449444786039 363.62447357182356
z" fill="none" stroke="none"></path>
<circle cx="0" cy="0" r="5.422558026861712" fill="#b06cc5">
  <animateMotion begin="-17.18737607393527s" dur="20s" repeatCount="indefinite">
    <mpath xlink:href="#path32"></mpath>
  </animateMotion>
</circle><path id="path33" d="M 126.90027200523865 111.80161673325968
c 0 31.675793004646923 -7.750459990498714 9.09836607580284 -16.848826066301555 9.09836607580284
S 93.20261987263554 143.4774097379066 93.20261987263554 111.80161673325968
s 7.750459990498714 -9.09836607580284 16.848826066301555 -9.09836607580284
S 126.90027200523865 80.12582372861276 126.90027200523865 111.80161673325968
z" fill="none" stroke="none"></path>
<circle cx="0" cy="0" r="6.7875190357061275" fill="#75017a">
  <animateMotion begin="-16.868168739666704s" dur="20s" repeatCount="indefinite">
    <mpath xlink:href="#path33"></mpath>
  </animateMotion>
</circle><path id="path34" d="M 746.7706996569333 882.0641969723689
c 0 23.44861065810531 -5.737426012089596 6.7352392315834395 -12.472665243673035 6.7352392315834395
S 721.8253691695871 905.5128076304742 721.8253691695871 882.0641969723689
s 5.737426012089596 -6.7352392315834395 12.472665243673035 -6.7352392315834395
S 746.7706996569333 858.6155863142636 746.7706996569333 882.0641969723689
z" fill="none" stroke="none"></path>
<circle cx="0" cy="0" r="7.44668471433694" fill="#9e3ea7">
  <animateMotion begin="-1.0166162124190903s" dur="20s" repeatCount="indefinite">
    <mpath xlink:href="#path34"></mpath>
  </animateMotion>
</circle><path id="path35" d="M 1556.3912633575176 519.5596415729638
c 0 35.08140419348065 -8.583747834575052 10.07657354493593 -18.660321379510982 10.07657354493593
S 1519.0706205984955 554.6410457664444 1519.0706205984955 519.5596415729638
s 8.583747834575052 -10.07657354493593 18.660321379510982 -10.07657354493593
S 1556.3912633575176 484.4782373794831 1556.3912633575176 519.5596415729638
z" fill="none" stroke="none"></path>
<circle cx="0" cy="0" r="6.182631238289598" fill="#caacd4">
  <animateMotion begin="-10.977271144400568s" dur="20s" repeatCount="indefinite">
    <mpath xlink:href="#path35"></mpath>
  </animateMotion>
</circle><path id="path36" d="M 63.7197176035192 125.72410027292294
c 0 28.87819767219899 -7.065941983623157 8.294801459035881 -15.360743442659038 8.294801459035881
S 32.99823071820113 154.60229794512193 32.99823071820113 125.72410027292294
s 7.065941983623157 -8.294801459035881 15.360743442659038 -8.294801459035881
S 63.7197176035192 96.84590260072395 63.7197176035192 125.72410027292294
z" fill="none" stroke="none"></path>
<circle cx="0" cy="0" r="4.415344970206244" fill="#9e3ea7">
  <animateMotion begin="-15.692247196749477s" dur="20s" repeatCount="indefinite">
    <mpath xlink:href="#path36"></mpath>
  </animateMotion>
</circle><path id="path37" d="M 1116.796166844114 904.577458754757
c 0 29.6175103865501 -7.246837647772896 8.507157238689922 -15.753994886462818 8.507157238689922
S 1085.2881770711883 934.1949691413071 1085.2881770711883 904.577458754757
s 7.246837647772896 -8.507157238689922 15.753994886462818 -8.507157238689922
S 1116.796166844114 874.9599483682069 1116.796166844114 904.577458754757
z" fill="none" stroke="none"></path>
<circle cx="0" cy="0" r="4.095972669459623" fill="#caacd4">
  <animateMotion begin="-0.31684936928470187s" dur="20s" repeatCount="indefinite">
    <mpath xlink:href="#path37"></mpath>
  </animateMotion>
</circle><path id="path38" d="M 72.38191208263959 53.770643850767186
c 0 24.514408477609415 -5.998206329627835 7.041372647823981 -13.039578977451816 7.041372647823981
S 46.30275412773596 78.2850523283766 46.30275412773596 53.770643850767186
s 5.998206329627835 -7.041372647823981 13.039578977451816 -7.041372647823981
S 72.38191208263959 29.25623537315777 72.38191208263959 53.770643850767186
z" fill="none" stroke="none"></path>
<circle cx="0" cy="0" r="6.2321607065008005" fill="#e4d8eb">
  <animateMotion begin="-15.135585795887966s" dur="20s" repeatCount="indefinite">
    <mpath xlink:href="#path38"></mpath>
  </animateMotion>
</circle><path id="path39" d="M 674.2752653159181 179.0495818086793
c 0 36.32629505336514 -8.888348789653174 10.434148579158073 -19.32249736881125 10.434148579158073
S 635.6302705782956 215.37587686204444 635.6302705782956 179.0495818086793
s 8.888348789653174 -10.434148579158073 19.32249736881125 -10.434148579158073
S 674.2752653159181 142.72328675531418 674.2752653159181 179.0495818086793
z" fill="none" stroke="none"></path>
<circle cx="0" cy="0" r="4.539456017642216" fill="#b06cc5">
  <animateMotion begin="-2.4495205451841118s" dur="20s" repeatCount="indefinite">
    <mpath xlink:href="#path39"></mpath>
  </animateMotion>
</circle><path id="path40" d="M 243.1566744643646 731.065866515117
c 0 31.41486640301169 -7.6866162475454125 9.023419073205485 -16.710035320750897 9.023419073205485
S 209.7366038228628 762.4807329181288 209.7366038228628 731.065866515117
s 7.6866162475454125 -9.023419073205485 16.710035320750897 -9.023419073205485
S 243.1566744643646 699.6510001121053 243.1566744643646 731.065866515117
z" fill="none" stroke="none"></path>
<circle cx="0" cy="0" r="4.513266873184184" fill="#9e3ea7">
  <animateMotion begin="-12.303395694303699s" dur="20s" repeatCount="indefinite">
    <mpath xlink:href="#path40"></mpath>
  </animateMotion>
</circle><path id="path41" d="M 856.6314650804571 1064.9150945479007
c 0 26.532450132031467 -6.491982479114082 7.621022910264357 -14.11300538937844 7.621022910264357
S 828.4054543017002 1091.4475446799322 828.4054543017002 1064.9150945479007
s 6.491982479114082 -7.621022910264357 14.11300538937844 -7.621022910264357
S 856.6314650804571 1038.3826444158692 856.6314650804571 1064.9150945479007
z" fill="none" stroke="none"></path>
<circle cx="0" cy="0" r="7.289448661934479" fill="#75017a">
  <animateMotion begin="-7.0052834576054845s" dur="20s" repeatCount="indefinite">
    <mpath xlink:href="#path41"></mpath>
  </animateMotion>
</circle><path id="path42" d="M 1081.9894831339777 385.6979318569072
c 0 28.17688391480351 -6.894343936600858 8.093360273401009 -14.987704210001866 8.093360273401009
S 1052.0140747139742 413.8748157717107 1052.0140747139742 385.6979318569072
s 6.894343936600858 -8.093360273401009 14.987704210001866 -8.093360273401009
S 1081.9894831339777 357.5210479421037 1081.9894831339777 385.6979318569072
z" fill="none" stroke="none"></path>
<circle cx="0" cy="0" r="4.78921107738842" fill="#75017a">
  <animateMotion begin="-3.098430511555703s" dur="20s" repeatCount="indefinite">
    <mpath xlink:href="#path42"></mpath>
  </animateMotion>
</circle><path id="path43" d="M 146.3905809637793 940.9867416371576
c 0 34.65701538301882 -8.479908019249285 9.95467463129264 -18.434582650541927 9.95467463129264
S 109.52141566269546 975.6437570201764 109.52141566269546 940.9867416371576
s 8.479908019249285 -9.95467463129264 18.434582650541927 -9.95467463129264
S 146.3905809637793 906.3297262541388 146.3905809637793 940.9867416371576
z" fill="none" stroke="none"></path>
<circle cx="0" cy="0" r="5.859138418694205" fill="#b06cc5">
  <animateMotion begin="-0.1485227194141947s" dur="20s" repeatCount="indefinite">
    <mpath xlink:href="#path43"></mpath>
  </animateMotion>
</circle><path id="path44" d="M 550.703643152678 154.1347743321594
c 0 25.259464900094404 -6.180507369172035 7.255378215984563 -13.435885585156598 7.255378215984563
S 523.8318719823648 179.3942392322538 523.8318719823648 154.1347743321594
s 6.180507369172035 -7.255378215984563 13.435885585156598 -7.255378215984563
S 550.703643152678 128.875309432065 550.703643152678 154.1347743321594
z" fill="none" stroke="none"></path>
<circle cx="0" cy="0" r="7.833184859346538" fill="#e4d8eb">
  <animateMotion begin="-17.79499895735695s" dur="20s" repeatCount="indefinite">
    <mpath xlink:href="#path44"></mpath>
  </animateMotion>
</circle><path id="path45" d="M 1858.859178355069 376.37218105731057
c 0 36.755613155064125 -8.993394708153987 10.557463353050334 -19.550858061204323 10.557463353050334
S 1819.7574622326604 413.1277942123747 1819.7574622326604 376.37218105731057
s 8.993394708153987 -10.557463353050334 19.550858061204323 -10.557463353050334
S 1858.859178355069 339.61656790224646 1858.859178355069 376.37218105731057
z" fill="none" stroke="none"></path>
<circle cx="0" cy="0" r="6.502247797203819" fill="#75017a">
  <animateMotion begin="-6.127824493172591s" dur="20s" repeatCount="indefinite">
    <mpath xlink:href="#path45"></mpath>
  </animateMotion>
</circle><path id="path46" d="M 443.9781279048943 458.8586160326959
c 0 24.982117373666014 -6.112645740365087 7.175714564776408 -13.288360305141495 7.175714564776408
S 417.40140729461126 483.84073340636195 417.40140729461126 458.8586160326959
s 6.112645740365087 -7.175714564776408 13.288360305141495 -7.175714564776408
S 443.9781279048943 433.8764986590299 443.9781279048943 458.8586160326959
z" fill="none" stroke="none"></path>
<circle cx="0" cy="0" r="7.980226933544554" fill="#b06cc5">
  <animateMotion begin="-7.118518498716551s" dur="20s" repeatCount="indefinite">
    <mpath xlink:href="#path46"></mpath>
  </animateMotion>
</circle><path id="path47" d="M 818.9918633350674 1037.9608917374455
c 0 21.769405959496858 -5.326556777323698 6.2529144777278205 -11.57947125505152 6.2529144777278205
S 795.8329208249643 1059.7302976969424 795.8329208249643 1037.9608917374455
s 5.326556777323698 -6.2529144777278205 11.57947125505152 -6.2529144777278205
S 818.9918633350674 1016.1914857779486 818.9918633350674 1037.9608917374455
z" fill="none" stroke="none"></path>
<circle cx="0" cy="0" r="5.92450876266952" fill="#75017a">
  <animateMotion begin="-9.724118417683169s" dur="20s" repeatCount="indefinite">
    <mpath xlink:href="#path47"></mpath>
  </animateMotion>
</circle><path id="path48" d="M 1743.3791714152132 501.7616595576708
c 0 34.74503721116919 -8.501445275073312 9.979957496825193 -18.481402771898505 9.979957496825193
S 1706.4163658714162 536.50669676884 1706.4163658714162 501.7616595576708
s 8.501445275073312 -9.979957496825193 18.481402771898505 -9.979957496825193
S 1743.3791714152132 467.0166223465016 1743.3791714152132 501.7616595576708
z" fill="none" stroke="none"></path>
<circle cx="0" cy="0" r="6.734419029571356" fill="#caacd4">
  <animateMotion begin="-16.001296906902972s" dur="20s" repeatCount="indefinite">
    <mpath xlink:href="#path48"></mpath>
  </animateMotion>
</circle><path id="path49" d="M 1170.5837735486484 456.3006514994231
c 0 28.53499118476217 -6.981965928186487 8.196220872218921 -15.17818680040541 8.196220872218921
S 1140.2273999478375 484.8356426841853 1140.2273999478375 456.3006514994231
s 6.981965928186487 -8.196220872218921 15.17818680040541 -8.196220872218921
S 1170.5837735486484 427.7656603146609 1170.5837735486484 456.3006514994231
z" fill="none" stroke="none"></path>
<circle cx="0" cy="0" r="6.496550089561857" fill="#e4d8eb">
  <animateMotion begin="-5.26990103202464s" dur="20s" repeatCount="indefinite">
    <mpath xlink:href="#path49"></mpath>
  </animateMotion>
</circle></g>
</svg>